{"title":"Shrek.2.H264.MukE.With.Director's.comments","uid":5503913,"size":736264734,"categoryP":"video","categoryS":"movies","magnet":"?xt=urn:btih:d59967770623ef6307bf31bdd013533085faf2cd&amp;dn=Shrek.2.H264.MukE.With.Director%5C%27s.comments&amp;tr=udp%3A%2F%2Ftracker.openbittorrent.com%3A80&amp;tr=udp%3A%2F%2Fopen.demonii.com%3A1337&amp;tr=udp%3A%2F%2Ftracker.coppersurfer.tk%3A6969&amp;tr=udp%3A%2F%2Fexodus.desync.com%3A6969","seeders":0,"leechers":1,"uploader":"muk0690","files":5,"time":1271706204,"description":"General\n      Complete name : Shrek2.2004.mp4\n      Format : MPEG-4\n      Format profile : Base Media\n      Codec ID : isom\n      File size : 702 MiB\n      Duration : 1h 22mn\n      Overall bit rate : 1 184 Kbps\n      Encoded date : UTC 2009-12-01 07:54:54\n      Tagged date : UTC 2009-12-01 07:54:54\n \n  Video\n      ID : 1\n      Format : AVC\n      Format/Info : Advanced Video Codec\n      Format profile : &lt;a class=&quot;__cf_email__&quot; href=&quot;/cdn-cgi/l/email-protection&quot; data-cfemail=&quot;2068494748606c140e11&quot;&gt;[email&amp;#160;protected]&lt;/a&gt;&lt;script cf-hash='f9e31' type=&quot;text/javascript&quot;&gt;\n/* &lt;![CDATA[ */!function(){try{var t=&quot;currentScript&quot;in document?document.currentScript:function(){for(var t=document.getElementsByTagName(&quot;script&quot;),e=t.length;e--;)if(t[e].getAttribute(&quot;cf-hash&quot;))return t[e]}();if(t&amp;&amp;t.previousSibling){var e,r,n,i,c=t.previousSibling,a=c.getAttribute(&quot;data-cfemail&quot;);if(a){for(e=&quot;&quot;,r=parseInt(a.substr(0,2),16),n=2;a.length-n;n+=2)i=parseInt(a.substr(n,2),16)^r,e+=String.fromCharCode(i);e=document.createTextNode(e),c.parentNode.replaceChild(e,c)}}}catch(u){}}();/* ]]&gt; */&lt;/script&gt;\n      Format settings, CABAC : Yes\n      Format settings, ReFrames : 12 frames\n      Codec ID : avc1\n      Codec ID/Info : Advanced Video Coding\n      Duration : 1h 22mn\n      Bit rate mode : Variable\n      Bit rate : 969 Kbps\n      Maximum bit rate : 3 733 Kbps\n      Width : 608 pixels\n      Height : 320 pixels\n      Display aspect ratio : 1.900\n      Frame rate mode : Constant\n      Frame rate : 23.976 fps\n      Resolution : 24 bits\n      Colorimetry : 4:2:0\n      Scan type : Progressive\n      Bits/(Pixel*Frame) : 0.208\n      Stream size : 575 MiB (82%)\n      Writing library : x264 core 68 r1183M f21daff\n      Encoded date : UTC 2009-12-01 06:13:02\n      Tagged date : UTC 2009-12-01 07:55:29\n   \nAudio \n      ID : 2\n      Format : AAC\n      Format/Info : Advanced Audio Codec\n      Format version : Version 4\n      Format profile : LC\n      Format settings, SBR : No\n      Codec ID : 40\n      Duration : 1h 22mn\n      Bit rate mode : Variable\n      Bit rate : 113 Kbps\n      Maximum bit rate : 154 Kbps\n      Channel(s) : 2 channels\n      Channel positions : L R\n      Sampling rate : 48.0 KHz\n      Resolution : 16 bits\n      Stream size : 67.0 MiB (10%)\n      Encoded date : UTC 2009-12-01 07:55:21\n      Tagged date : UTC 2009-12-01 07:55:29\n   \nAudio - Director's Comments 1\n      ID : 3\n      Format : AAC\n      Format/Info : Advanced Audio Codec\n      Format version : Version 4\n      Format profile : LC\n      Format settings, SBR : Yes\n      Format settings, PS : No\n      Codec ID : 40\n      Duration : 1h 22mn\n      Bit rate mode : Variable\n      Bit rate : 48.0 Kbps\n      Maximum bit rate : 68.3 Kbps\n      Channel(s) : 2 channels\n      Channel positions : L R\n      Sampling rate : 48.0 KHz\n      Resolution : 16 bits\n      Stream size : 28.5 MiB (4%)\n      Encoded date : UTC 2009-12-01 07:55:25\n      Tagged date : UTC 2009-12-01 07:55:29\n  \n Audio - Director's Comments 2\n      ID : 4\n      Format : AAC\n      Format/Info : Advanced Audio Codec\n      Format version : Version 4\n      Format profile : LC\n      Format settings, SBR : Yes\n      Format settings, PS : No\n      Codec ID : 40\n      Duration : 1h 22mn\n      Bit rate mode : Variable\n      Bit rate : 48.0 Kbps\n      Maximum bit rate : 64.6 Kbps\n      Channel(s) : 2 channels\n      Channel positions : L R\n      Sampling rate : 48.0 KHz\n      Resolution : 16 bits\n      Stream size : 28.5 MiB (4%)\n      Encoded date : UTC 2009-12-01 07:55:28\n      Tagged date : UTC 2009-12-01 07:55:29\n\nSubtitles: English srt (SubRip) subtitles.\n           Included subtitles even for the director's comments.","torrent":{"xt":"urn:btih:d59967770623ef6307bf31bdd013533085faf2cd","amp;dn":"Shrek.2.H264.MukE.With.Director%5C%27s.comments","amp;tr":["udp%3A%2F%2Ftracker.openbittorrent.com%3A80","udp%3A%2F%2Fopen.demonii.com%3A1337","udp%3A%2F%2Ftracker.coppersurfer.tk%3A6969","udp%3A%2F%2Fexodus.desync.com%3A6969"],"infoHash":"d59967770623ef6307bf31bdd013533085faf2cd","infoHashBuffer":{"type":"Buffer","data":[213,153,103,119,6,35,239,99,7,191,49,189,208,19,83,48,133,250,242,205]},"announce":[],"urlList":[]}}